# xmcd CD database file
#
# Track frame offsets:
#	150
#	2067
#	21740
#	40065
#	57287
#	79527
#	103890
#	117165
#	132970
#	155352
#	172545
#	189585
#	207082
#	219297
#
# Disc length: 3064 seconds
#
# Revision: 0
# Processed by: cddbd v1.4PL0 Copyright (c) Steve Scherf et al.
# Submitted via: CDex 1.40Beta9
#
DISCID=b00bf60e
DTITLE=James Cotton - Late Night Blues
DYEAR=1998
DGENRE=Blues
TTITLE0=Intro
TTITLE1=Honky Tonk
TTITLE2=Woke Up This Morning
TTITLE3=Black Night
TTITLE4=Feelin' Good
TTITLE5=Mean Old World
TTITLE6=Mother In Law Blues
TTITLE7=Every Day I Have The Blues
TTITLE8=Tramp
TTITLE9=Nine Below Zero
TTITLE10=That's Alright
TTITLE11=Rock Me Baby
TTITLE12=Rocket 88
TTITLE13=Outro
EXTD=YEAR: 1998 ID3G: 0
EXTT0=
EXTT1=
EXTT2=
EXTT3=
EXTT4=
EXTT5=
EXTT6=
EXTT7=
EXTT8=
EXTT9=
EXTT10=
EXTT11=
EXTT12=
EXTT13=
PLAYORDER=
